# xmcd
#
# Track frame offsets: 
#        150
#        14048
#        33828
#        50550
#        69172
#        89481
#        105600
#        122788
#        138594
#        158288
#        174214
#
# Disc length: 2596 seconds
#
# Revision: 0
# Processed by: cddbd v1.5.2PL0 Copyright (c) Steve Scherf et al.
# Submitted via: ExactAudioCopyFreeDBPlugin 1.0
#
DISCID=870a220b
DTITLE=Paul Cauthen - My Gospel
DYEAR=2016
DGENRE=Blues
TTITLE0=Still Drivin'
TTITLE1=I'll Be The One
TTITLE2=As Young As You'll Ever Be
TTITLE3=Grand Central
TTITLE4=Saddle
TTITLE5=Once You're Gone
TTITLE6=Marfa Lights
TTITLE7=Be There Soon
TTITLE8=Hanging Out On The Line
TTITLE9=Let It Burn
TTITLE10=My Gospel
EXTD=
EXTT0=
EXTT1=
EXTT2=
EXTT3=
EXTT4=
EXTT5=
EXTT6=
EXTT7=
EXTT8=
EXTT9=
EXTT10=
PLAYORDER=
